<svg xmlns="http://www.w3.org/2000/svg" viewBox="0 0 104.9 29.8" enable-background="new 0 0 104.9 29.8"><style type="text/css">.st0{fill:#22A7DD;} .st1{fill:#F7943A;} .st2{fill:#E81F39;} .st3{fill:#ED1C24;} .st4{fill:#23728D;} .st5{fill:#7E1229;}</style><g id="XMLID_95_"><path id="XMLID_156_" class="st0" d="M53.1 15.9l-1.4 3.2h-9.2l-.6 1.4h4.9c3.1 0 4.4 1.1 3.9 3.4-.7 3.4-3.5 4.7-7.2 4.7h-9.7l5.5-12.7h13.8zm-13.5 9.8h4.1c1.3 0 2.1-.4 2.3-1.4.1-.6-.1-.9-1.3-.9h-4.1l-1 2.3z"/><path id="XMLID_33_" class="st0" d="M54.6 28.6h-4.2l4.3-9.5h4.1z"/><path id="XMLID_32_" class="st0" d="M59.2 18.1h-4.1l.9-2.2h4.2z"/><path id="XMLID_152_" class="st0" d="M66.3 21.9l-2.9 6.7h-4.3l2.9-6.7h-3.6l1.3-2.9h11.5l-1.3 2.9h-3.6z"/><path id="XMLID_150_" class="st1" d="M80.3 21l2.9 7.6h-4.9l-1.7-5-2.7 1.9-1.4 3.1h-4.4l5.7-12.7h4.3l-2.1 4.7 6.2-4.7h5.6l-7.5 5.1z"/><path id="XMLID_29_" class="st1" d="M88.3 28.6h-4.2l4.3-9.5h4.1z"/><path id="XMLID_28_" class="st1" d="M93 18.1h-4.2l1-2.2h4.2z"/><path id="XMLID_146_" class="st1" d="M100 21.9l-2.9 6.7h-4.3l2.9-6.7h-3.6l1.3-2.9h11.5l-1.3 2.9h-3.6z"/><path id="XMLID_13_" class="st0" d="M3.3 27.7h8.2l8.3-17.7 24.5.1v1l-20.4-.1-8.2 17.7h-12.7v-1h.3z"/><g id="XMLID_115_"><path id="XMLID_12_" class="st1" d="M20.7 23.8l8.3-17.7 22.9.2v1l-18.9-.1-8.2 17.7-1.7 3.8h-4.6"/><path id="XMLID_116_" class="st1" d="M53.3 5c-.9 0-1.7.8-1.7 1.7s.8 1.7 1.7 1.7c.9 0 1.7-.8 1.7-1.7s-.8-1.7-1.7-1.7zm0 2.6c-.5 0-.9-.4-.9-.9s.4-.9.9-.9.9.4.9.9c-.1.5-.5.9-.9.9z"/></g><g id="XMLID_110_"><path id="XMLID_9_" class="st2" d="M30.3 18.8l8.3-17.6h20.8v1h-16.8l-8.2 17.7-3.9 8.7-4.6.1"/><path id="XMLID_111_" class="st3" d="M60.8 0c-.9 0-1.7.8-1.7 1.7s.8 1.7 1.7 1.7 1.7-.8 1.7-1.7-.8-1.7-1.7-1.7zm0 2.6c-.5 0-.9-.4-.9-.9s.4-.9.9-.9.9.4.9.9-.5.9-.9.9z"/></g><path id="XMLID_107_" class="st0" d="M1.7 26.4c-.9 0-1.7.8-1.7 1.7 0 .9.8 1.7 1.7 1.7s1.7-.8 1.7-1.7c0-.9-.8-1.7-1.7-1.7zm0 2.6c-.5 0-.9-.4-.9-.9s.4-.9.9-.9.9.4.9.9-.4.9-.9.9z"/><path id="XMLID_4_" class="st4" d="M31.6 10.1l-.4 1h1.2l.4-1z"/><path id="XMLID_3_" class="st5" d="M40.8 6.2l-.5 1h1.2l.4-1z"/><path id="XMLID_101_" class="st0" d="M45.6 8.9c-.9 0-1.7.8-1.7 1.7s.8 1.7 1.7 1.7c.9 0 1.7-.8 1.7-1.7s-.7-1.7-1.7-1.7zm0 2.6c-.5 0-.9-.4-.9-.9s.4-.9.9-.9.9.4.9.9-.4.9-.9.9z"/></g></svg>