<svg xmlns="http://www.w3.org/2000/svg" viewBox="0 0 218.8 39.3" enable-background="new 0 0 218.8 39.3"><style type="text/css">.st0{fill:#FFBD00;} .st1{fill:#FFFFFF;}</style><title>logo</title><path class="st0" d="M72.1 0c-10.8 0-19.6 8.8-19.6 19.7s8.8 19.7 19.7 19.7 19.7-8.8 19.7-19.7c-.1-10.9-8.9-19.7-19.8-19.7zm0 31.2c-6.4 0-11.5-5.2-11.5-11.5s5.2-11.6 11.5-11.6c6.4 0 11.5 5.2 11.5 11.5s-5.1 11.6-11.5 11.6zM99.8 23.9h15.6v13.6h-15.6zM99.8 1.9h15.6v13.6h-15.6z"/><path class="st1" d="M210.4 23c-.2.1-.4.1-.7.1-.8 0-1.5-.5-2-1.1l-2.2-2.7 2.8-3.5h1.9l-2.8 3.4 1.6 1.8c.2.3.5.5.8.5.2 0 .4 0 .6-.1v1.6zM203.8 15.8h1.6v7.1h-1.6zM196.7 21.4c.2.1.5.2.8.2.3 0 .5-.1.7-.3l-2.7-5.5h1.8l1.8 3.7h.1l1.5-3.7h1.8l-2.6 5.6c-.3 1-1.2 1.7-2.2 1.7-.3 0-.6 0-.8-.1l-.2-1.6zM192.4 15.9h-1.8l-2.9 7.1h1.6l.6-1.5h2.9l.6 1.5h1.7l-2.7-7.1zm-1.8 4.2l.9-2.3.9 2.3h-1.8zM169.6 15.9h-1.5l-3.3 4.6h-.1v-4.6h-1.7v7h1.6l3.3-4.7h.1v4.7h1.6zM207.2 1.6c-2 0-3.7 1.7-3.6 3.7s1.7 3.7 3.7 3.6c2 0 3.6-1.7 3.6-3.7 0-1.9-1.6-3.6-3.7-3.6zm0 5.9c-1.1 0-2-.9-2-2v-.2c-.1-1.1.8-2.1 1.9-2.2 1.1-.1 2.1.8 2.2 1.9v.3c.1 1.1-.7 2.1-1.8 2.2h-.3zM200.8 5c.5-.3.8-.8.8-1.3 0-1.2-1-1.9-2.5-1.9h-2.5v7.1h2.9c1.6 0 2.6-.8 2.6-2.2-.1-.8-.6-1.4-1.3-1.7zm-2.6-1.9h.7c.6 0 1 .2 1 .7s-.3.8-.9.8h-.9l.1-1.5zm1.1 4.4h-1.1v-1.7h1.1c.5 0 .9.3.9.7v.1c.1.5-.3.9-.9.9zM168.8 1.7h4.4v1.5h-2.8v1.3h2.6v1.4h-2.6v1.5h2.8v1.4h-4.4zM161.2 1.7h5.9v1.5h-2.1v5.6h-1.7v-5.6h-2.1zM146.7 5.9h-3.1v2.9h-1.7v-7.1h1.7v2.7h3.1v-2.7h1.6v7.1h-1.6zM137.9 1.7h1.7v7.1h-1.7zM133.9 8.8v-4.2h-.1l-1.7 3.1h-1l-1.8-3.1v4.2h-1.6v-7.1h1.6l2.3 4.1 2.3-4.1h1.6v7.1zM150.7 1.7h1.7v7.1h-1.7zM178.1 1.7h-2.7v7.1h1.7v-2.3h1c1.4.1 2.5-1 2.6-2.3-.1-1.4-1.2-2.5-2.6-2.5zm-.1 3.3h-.9v-1.8h.9c.5 0 .9.3 1 .8v.1c0 .5-.5.9-1 .9zM189 1.7h5.9v1.5h-2.2v5.6h-1.6v-5.6h-2.1zM131.5 15.7c-2 0-3.7 1.7-3.6 3.7 0 2 1.7 3.7 3.7 3.6 2 0 3.6-1.7 3.6-3.7 0-1.9-1.6-3.6-3.7-3.6zm0 5.9c-1.1 0-2-.9-2-2v-.2c-.1-1.1.8-2.1 1.9-2.2 1.1-.1 2.1.8 2.2 1.9v.3c.1 1.1-.7 2.1-1.8 2.2h-.3zM148.9 19.1c.5-.3.8-.8.8-1.3 0-1.2-1-1.9-2.6-1.9h-2.5v7.1h2.9c1.6 0 2.6-.9 2.6-2.2 0-.8-.5-1.4-1.2-1.7zm-2.6-1.9h.7c.6 0 1 .2 1 .7s-.3.8-.9.8h-.9l.1-1.5zm1.1 4.4h-1.1v-1.7h1.1c.5 0 .9.3.9.7v.1c0 .5-.4.9-.9.9zM184.8 20h-3.1v2.9h-1.6v-7h1.6v2.6h3.1v-2.6h1.7v7h-1.7zM152 15.9h1.7v7.1h-1.7zM155.5 15.9h5.8v1.4h-2.1v5.6h-1.6v-5.6h-2.1zM142.5 21.1c-.6.3-1.3.5-1.9.5-1.1.1-2.1-.8-2.1-1.9v-.3c-.1-1.1.7-2.1 1.8-2.2h.3c.7 0 1.3.2 1.9.5v-1.7c-.6-.2-1.2-.3-1.9-.3-2 0-3.7 1.6-3.8 3.6v.1c0 2 1.6 3.7 3.6 3.7h.2c.6 0 1.3-.1 1.9-.3v-1.7zM174 15.9h1.7v7.1h-1.7zM218.8 15.9h-1.6l-3.3 4.6h-.1v-4.6h-1.7v7h1.6l3.3-4.7h.1v4.7h1.7zM160 7c-.6.3-1.3.5-1.9.5-1.1.1-2.1-.8-2.1-1.9v-.3c-.1-1.1.7-2.1 1.8-2.2h.2c.7 0 1.3.2 1.9.5v-1.6c-.6-.2-1.2-.4-1.9-.4-2 0-3.7 1.6-3.8 3.6v.1c0 2 1.6 3.7 3.6 3.7h.2c.7 0 1.3-.1 1.9-.3v-1.7zM187.7 7c-.6.3-1.3.5-1.9.5-1.1.1-2.1-.8-2.1-1.9v-.3c-.1-1.1.7-2.1 1.8-2.2h.3c.7 0 1.3.2 1.9.5v-1.6c-.6-.2-1.2-.3-1.9-.3-2 0-3.7 1.6-3.8 3.6 0 2 1.6 3.7 3.6 3.7h.2c.6 0 1.3-.1 1.9-.3v-1.7zM142.8 37.1c-.2.1-.4.1-.7.1-.8 0-1.5-.5-2-1.1l-2.2-2.6 2.8-3.4h1.9l-2.8 3.4 1.5 1.8c.2.3.5.5.8.5.2 0 .4 0 .6-.1l.1 1.4zM136.5 30h1.6v7.1h-1.6zM129.5 35.5c.2.1.5.2.8.2.3 0 .5-.1.7-.3l-2.7-5.4h1.8l1.8 3.7h.1l1.5-3.7h1.8l-2.6 5.6c-.3 1-1.2 1.7-2.2 1.7-.3 0-.6 0-.8-.1l-.2-1.7zM154.8 30h-1.8l-2.9 7.1h1.6l.6-1.5h2.9l.6 1.5h1.7l-2.7-7.1zm-1.8 4.3l.9-2.3.9 2.3h-1.8zM167.8 34.1h-3.1v3h-1.7v-7.1h1.7v2.6h3.1v-2.6h1.6v7.1h-1.6zM159 30h1.7v7.1h-1.7zM178.4 30h-1.5l-3.4 4.7v-4.7h-1.7v7.1h1.6l3.3-4.7h.1v4.7h1.6zM147.3 30h-2.7v7.1h1.7v-2.4h1c1.3.1 2.5-.8 2.6-2.1.1-1.3-.8-2.5-2.1-2.6h-.5zm-.2 3.3h-.9v-1.9h.9c.5 0 .9.3 1 .8v.1c0 .6-.4 1-1 1zM158.1 28h1.3v1.2h-1.3zM160.2 28h1.3v1.2h-1.3z"/><path class="st0" d="M11.7 39.3c-.4-.6-.8-1-1.2-1.3-.8-.6-1.5-1.3-2.1-2.2-.8-1-1.3-2.2-1.7-3.5l-.2-.7c0-.2-.1-.2-.3-.2h-6c-.3 0-.3 0-.3-.3v-28l.7.4 1.6 1.2c.7.6 1.4 1.4 1.9 2.2.9 1.4 1.5 2.7 1.8 4 .3 1.4.5 2.8.6 4.2l.6 5v.3s0 .2-.2.3l-.9.1c-1 .4-1.5 1.5-1.1 2.5l.3.5c.3.4.8.6 1.2.7l.9.2c.1 0 .2 0 .2-.1l1.2-2.4s.6-1.7.9-2.6c.5-1.5.9-3.1 1-4.6 0-1.2 0-2.4-.1-3.6l-.3-5.3c0-.8-.1-1.6-.1-2.3 0-1.2.4-2.3 1.1-3.2.3-.4.3-.3.6 0 .7.9 1.1 1.9 1.1 3 0 1 0 2-.1 3l-.4 6.8c-.1 2 .2 4 .8 5.9.3 1.2.8 2.4 1.3 3.5l.9 1.8c0 .1.2.2.3.1.5-.1.9-.2 1.3-.3.7-.2 1.2-.9 1.2-1.7.1-.9-.5-1.8-1.4-2l-.7-.1h-.2l.2-1.5.6-5.1c.1-1.2.3-2.3.5-3.4.4-1.6 1.2-3.1 2.2-4.3.3-.4.6-.8 1-1.2.8-.8 1.7-1.5 2.6-2h.1v27.9c0 .3 0 .3-.3.3h-6.1c-.2 0-.3 0-.3.2-.2.9-.4 1.7-.8 2.5s-.9 1.6-1.6 2.3c-.6.6-1.2 1.2-1.8 1.7l-.8.8c.4.3.4.4.3.5zm-9.7-32l-.1.3v14s0 .1.1.1h.8c.1 0 .2-.1.2-.2.3-1 1-1.8 1.9-2.2.1 0 .1-.1.1-.2l-.1-.7-.6-5.4c-.2-1.8-.8-3.5-1.9-4.9-.1-.4-.3-.6-.4-.8zm19.5 14.4v-14.4h-.1l-.6.9c-.9 1.3-1.4 2.7-1.6 4.3l-.8 6.6c0 .2.1.2.2.3.3.2.5.3.7.5.5.5.9 1.1 1.1 1.7 0 .1.1.1.1.1h1zm-19.6 4.9v2.7c0 .1 0 .2.2.2h4c.2 0 .2 0 .2-.2 0-.9.2-1.7.4-2.5 0-.1 0-.1-.1-.2l-.7-.1c-.7-.2-1.3-.5-1.8-1-.5-.4-.9-1-1.1-1.7 0-.1-.1-.2-.2-.2h-.7s-.2 0-.2.2v2.8zm17.4 2.9h2c.2 0 .3-.1.3-.3v-5.4c0-.1 0-.2-.2-.2h-.6c-.3 0-.3 0-.4.3-.4 1.1-1.2 1.9-2.2 2.3-.4.1-.8.3-1.2.3-.1 0-.2.1-.1.2.2.8.3 1.7.4 2.5 0 .1.1.2.2.2l1.8.1zm-9.7-4.2l.9.5c.4.2.8.5 1.1.9.1.2.1.2.3 0 .4-.4.8-.8 1.3-1 .2-.1.4-.2.7-.3-.9-1.5-1.6-3.1-2.1-4.8-.6 1.6-1.4 3.2-2.2 4.7zm5.3 6.2h-2c-.2 0-.2 0-.2.2v3.9000000000000004c1.1-1.2 1.8-2.6 2.2-4.1zm-6.4 0c.2 1.2 1.6 3.8 2.2 4v-3.9c0-.1-.1-.2-.2-.2l-2 .1zm1-2h1c.2 0 .3 0 .2-.2l-.3-1c-.3-.6-.9-1-1.6-1.2-.1 0-.2 0-.3.2-.2.7-.3 1.4-.3 2.1 0 .1 0 .2.2.2l1.1-.1zm4.4 0h1.1c.1 0 .2 0 .2-.2 0-.7-.1-1.3-.3-2-.1-.3-.1-.3-.4-.2-.5.1-.9.4-1.3.8-.3.4-.5.9-.6 1.4 0 .1 0 .2.2.2h1.1zM38.1 2h1v35.7h-1z"/></svg>