<?xml version="1.0" encoding="utf-8"?>
<svg width="134" height="50" viewBox="0 0 134 50" xmlns="http://www.w3.org/2000/svg" xmlns:xlink="http://www.w3.org/1999/xlink" class="icon icon-miniland-logo"><title>miniland logo</title><defs><path id="a" d="M0 .13v12.285h12.194V.13z"></path><path id="c" d="M12.29 12.417H.098V.13H12.29v12.288z"></path><path id="e" d="M12.29 12.417H.098V.13H12.29z"></path><path id="g" d="M2.148.047v16.475H.098V.047h2.05z"></path><path id="i" d="M6.098.06H.043V25.49h6.055z"></path><path id="k" d="M6.183.06H.128V25.49h6.055V.06z"></path><path id="m" d="M18.26.06v25.673H.005V.059H18.26z"></path></defs><g fill="none" fill-rule="evenodd"><g transform="translate(0 36.923)"><mask id="b" fill="#fff"><use xlink:href="#a"></use></mask><path d="M2.198 4.882c.44-1.739 1.787-2.839 3.898-2.839 2.11 0 3.4 1.1 3.87 2.84H2.198zM6.096.13C2.666.13 0 2.245 0 6.272c0 4.028 2.666 6.143 6.096 6.143 1.994 0 3.548-.695 4.69-1.97.118-.145.058-.318-.088-.407L9.496 9.43c-.206-.086-.38-.058-.528.088-.674.609-1.728.985-2.872.985-2.492 0-3.956-1.536-4.045-3.97h9.82c.204 0 .323-.115.323-.318 0-3.97-2.669-6.086-6.098-6.086z" fill="#CECCC0" mask="url(#b)"></path></g><path d="M20.158 47.426c-2.58 0-4.045-1.65-4.045-4.23 0-2.665 1.466-4.23 4.045-4.23 2.55 0 3.958 1.565 4.045 4.23 0 2.58-1.466 4.23-4.045 4.23m5.775-14.91h-1.408c-.203 0-.322.117-.322.318v6.219c-1.025-1.363-2.637-1.972-4.133-2-3.43-.087-6.008 2.172-6.008 6.142 0 3.623 2.666 6.143 6.096 6.143s6.098-2.202 6.098-6.143v-10.36c0-.202-.119-.32-.323-.32M40.186 37.4h-1.408c-.204 0-.322.117-.322.32v5.823c0 3.1-2.08 3.883-3.634 3.883-1.553 0-3.635-.783-3.635-3.883V37.72c0-.204-.117-.321-.323-.321H29.46c-.206 0-.323.117-.323.32v5.823c0 3.768 2.402 5.795 5.686 5.795 3.282 0 5.686-2.027 5.686-5.795V37.72c0-.204-.116-.321-.322-.321M49.342 37.052c-3.43 0-6.096 2.116-6.096 6.143 0 4.028 2.667 6.143 6.096 6.143 2.463 0 4.544-1.071 5.511-3.186.088-.204.03-.32-.176-.405l-1.26-.551c-.204-.089-.323-.03-.41.172-.616 1.304-1.905 2.058-3.665 2.058-2.579 0-4.045-1.65-4.045-4.23 0-2.579 1.466-4.23 4.045-4.23 1.847 0 3.136.84 3.723 2.231.087.144.264.29.41.202l1.291-.434c.204-.03.291-.233.204-.377-.909-2.347-3.018-3.536-5.628-3.536" fill="#CECCC0"></path><g transform="translate(57.076 36.923)"><mask id="d" fill="#fff"><use xlink:href="#c"></use></mask><path d="M6.193 10.503c-2.58 0-4.045-1.564-4.045-4.23 0-2.579 1.466-4.23 4.045-4.23 2.579 0 4.045 1.651 4.045 4.23-.087 2.666-1.496 4.23-4.045 4.23m0-10.374C2.763.13.097 2.652.097 6.272c0 4.028 2.579 6.23 6.008 6.143 1.496-.029 3.107-.637 4.133-1.998v1.332c0 .204.116.319.322.319h1.408c.204 0 .323-.115.323-.32V6.273C12.29 2.332 9.622.13 6.193.13" fill="#CECCC0" mask="url(#d)"></path></g><path d="M84.345 32.268c-.849 0-1.523.695-1.523 1.505 0 .84.674 1.507 1.523 1.507.821 0 1.524-.666 1.524-1.507 0-.81-.703-1.505-1.524-1.505M84.94 37.4h-1.408c-.204 0-.322.117-.322.32v10.952c0 .204.118.319.322.319h1.408c.204 0 .323-.115.323-.319V37.721c0-.204-.119-.321-.323-.321M94.012 47.426c-2.579 0-4.045-1.65-4.045-4.23 0-2.579 1.466-4.23 4.045-4.23 2.579 0 4.045 1.651 4.045 4.23 0 2.58-1.466 4.23-4.045 4.23m0-10.374c-3.43 0-6.096 2.116-6.096 6.143 0 4.028 2.667 6.143 6.096 6.143 3.43 0 6.098-2.115 6.098-6.143 0-4.027-2.668-6.143-6.098-6.143M108.291 37.052c-3.284 0-5.686 2.03-5.686 5.796v5.824c0 .204.116.319.322.319h1.406c.206 0 .323-.115.323-.319v-5.824c0-3.1 2.081-3.882 3.635-3.882 1.554 0 3.633.782 3.633 3.882v5.824c0 .204.119.319.323.319h1.408c.206 0 .322-.115.322-.319v-5.824c0-3.767-2.404-5.796-5.686-5.796" fill="#CECCC0"></path><g transform="translate(116.472 36.923)"><mask id="f" fill="#fff"><use xlink:href="#e"></use></mask><path d="M6.193 10.503c-2.58 0-4.045-1.564-4.045-4.23 0-2.579 1.466-4.23 4.045-4.23 2.579 0 4.045 1.651 4.045 4.23-.087 2.666-1.495 4.23-4.045 4.23m0-10.374C2.763.13.097 2.652.097 6.272c0 4.028 2.579 6.23 6.008 6.143 1.496-.029 3.108-.637 4.133-1.998v1.332c0 .204.117.319.322.319h1.408c.204 0 .323-.115.323-.32V6.273C12.29 2.332 9.622.13 6.193.13" fill="#CECCC0" mask="url(#f)"></path></g><g transform="translate(131.765 32.469)"><mask id="h" fill="#fff"><use xlink:href="#g"></use></mask><path d="M1.826.047H.42C.214.047.098.164.098.365v15.838c0 .204.116.319.322.319h1.406c.206 0 .322-.115.322-.319V.365c0-.201-.116-.318-.322-.318" fill="#CECCC0" mask="url(#h)"></path></g><path d="M79.728 46.904c-.146-.173-.294-.202-.468-.058-.5.348-1.202.609-1.995.609-1.113 0-2.17-.638-2.17-2.348v-5.853H78.8c.204 0 .322-.115.322-.318V37.72c0-.204-.118-.321-.322-.321h-3.704v-.82h-.004v-1.924c0-.203-.119-.318-.322-.318H73.36c-.206 0-.322.115-.322.318V37.4h-1.238c-.206 0-.322.117-.322.32v1.216c0 .203.116.318.322.318h1.238v1.48c0 .014.005.024.006.037v4.278c0 2.928 1.787 4.29 4.014 4.29 1.203 0 2.317-.377 3.226-1.16.146-.116.146-.348.03-.492l-.587-.783z" fill="#CECCC0"></path><path d="M27.492 15.602v9.237a.753.753 0 0 1-.736.728h-3.547a.752.752 0 0 1-.733-.728v-9.063c0-1.197-.302-3.123-2.898-3.123-2.381 0-2.9 1.626-2.9 2.824v9.362a.753.753 0 0 1-.735.728h-3.547a.753.753 0 0 1-.736-.728v-9.362c0-1.198-.56-2.824-2.9-2.824-2.595 0-2.894 1.926-2.894 3.123v9.063c0 .386-.349.728-.736.728H1.583a.753.753 0 0 1-.737-.728v-9.237c0-5.473 3.505-7.653 7.915-7.653 2.078 0 4.24.986 5.41 2.824 1.166-1.838 3.286-2.824 5.407-2.824 4.367 0 7.914 2.18 7.914 7.653" fill="#FF4049"></path><g transform="translate(29.903 .076)"><mask id="j" fill="#fff"><use xlink:href="#i"></use></mask><path d="M5.58 24.763a.753.753 0 0 1-.736.728H1.297a.753.753 0 0 1-.736-.728V9.113c0-.383.345-.724.736-.724h3.547c.39 0 .736.341.736.724v15.65zM3.072 6.048c-1.687 0-3.03-1.327-3.03-2.994 0-1.668 1.343-2.995 3.03-2.995 1.687 0 3.026 1.327 3.026 2.995 0 1.667-1.339 2.994-3.026 2.994z" fill="#FF4049" mask="url(#j)"></path></g><path d="M55.576 16.5v8.339a.753.753 0 0 1-.736.728h-3.547a.752.752 0 0 1-.732-.728V16.5c0-2.18-1.082-3.805-3.547-3.805-2.554 0-3.547 1.626-3.547 3.805v8.339c0 .386-.349.728-.736.728h-3.547a.753.753 0 0 1-.736-.728V16.5c0-5.685 3.761-8.55 8.566-8.55 4.8 0 8.562 2.865 8.562 8.55" fill="#FF4049"></path><g transform="translate(57.895 .076)"><mask id="l" fill="#fff"><use xlink:href="#k"></use></mask><path d="M5.665 24.763a.753.753 0 0 1-.736.728H1.382a.753.753 0 0 1-.736-.728V9.113c0-.383.345-.724.736-.724H4.93c.391 0 .736.341.736.724v15.65zM3.158 6.048C1.47 6.048.128 4.72.128 3.054.128 1.386 1.47.059 3.158.059c1.687 0 3.025 1.327 3.025 2.995 0 1.667-1.338 2.994-3.025 2.994z" fill="#FF4049" mask="url(#l)"></path></g><path d="M72.12 24.839a.752.752 0 0 1-.732.728h-3.55a.752.752 0 0 1-.733-.728V1.133c0-.387.345-.728.732-.728h3.55c.388 0 .733.341.733.728v23.706zM88.057 17.057c0-3.206-2.381-4.404-4.195-4.404-1.86 0-4.325 1.285-4.325 4.363 0 3.419 2.117 4.446 4.195 4.446 1.86 0 4.325-1.456 4.325-4.405m4.889-.128v7.91a.753.753 0 0 1-.736.728h-3.072a.753.753 0 0 1-.736-.728v-1.88c-1.166 2.009-3.374 3.165-5.84 3.165-4.93 0-7.872-3.722-7.872-9.067 0-5.643 4.068-9.108 9.172-9.108 5.104 0 9.084 3.078 9.084 8.98M113.046 16.5v8.339a.753.753 0 0 1-.736.728h-3.547a.752.752 0 0 1-.732-.728V16.5c0-2.18-1.082-3.805-3.547-3.805-2.554 0-3.55 1.626-3.55 3.805v8.339a.752.752 0 0 1-.733.728h-3.547a.753.753 0 0 1-.736-.728V16.5c0-5.685 3.761-8.55 8.566-8.55 4.8 0 8.562 2.865 8.562 8.55" fill="#FF4049"></path><g transform="translate(115.653 .346)"><mask id="n" fill="#fff"><use xlink:href="#m"></use></mask><path d="M13.241 16.625c0-3.249-2.377-4.317-4.195-4.317-1.817 0-4.068 1.284-4.068 4.362 0 3.078 2.339 4.36 4.199 4.36 1.817 0 4.064-1.07 4.064-4.405m0-7.096V.787c0-.386.345-.728.736-.728h3.547c.388 0 .736.342.736.728v15.712c0 5.773-3.98 9.234-9.083 9.234-5.108 0-9.172-3.548-9.172-9.192 0-4.662 2.753-8.937 8.045-8.937 1.211 0 3.546.216 5.191 1.925" fill="#FF4049" mask="url(#n)"></path></g></g></svg>