<svg xmlns="http://www.w3.org/2000/svg" viewBox="0 0 226.8 47.4" enable-background="new 0 0 226.8 47.4"><style type="text/css">.st0{fill:#7ACED4;}</style><path class="st0" d="M225 8.9c-.5-.5-1.2-1-1.9-1.3-.7-.3-1.5-.5-2.3-.5-.8 0-1.6.2-2.3.5-.7.3-1.4.7-1.9 1.3-.6.5-1 1.2-1.3 1.9-.3.7-.5 1.5-.5 2.3 0 .8.2 1.6.5 2.4.3.7.8 1.4 1.3 1.9.6.5 1.2 1 1.9 1.3.7.3 1.5.5 2.3.5.8 0 1.6-.2 2.3-.5.7-.3 1.4-.7 1.9-1.3.5-.5 1-1.2 1.3-1.9.3-.7.5-1.5.5-2.4 0-.8-.2-1.6-.5-2.3s-.7-1.3-1.3-1.9zm.5 6.3c-.2.6-.6 1.2-1 1.6-.4.5-1 .8-1.6 1.1-.6.3-1.3.4-2.1.4s-1.5-.1-2.1-.4c-.6-.3-1.2-.6-1.6-1.1-.4-.5-.8-1-1-1.6-.2-.6-.4-1.3-.4-2s.1-1.4.4-2c.3-.6.6-1.2 1.1-1.6.5-.5 1-.8 1.6-1.1.6-.3 1.3-.4 2-.4s1.4.1 2 .4c.6.3 1.2.6 1.6 1.1.5.5.8 1 1.1 1.6.3.6.4 1.3.4 2s-.2 1.3-.4 2zM222.1 13.5c.3-.1.5-.3.7-.5.2-.2.3-.4.4-.7.1-.2.2-.5.2-.8 0-.2 0-.5-.1-.7-.1-.3-.2-.5-.5-.7-.2-.2-.5-.4-.8-.5-.4-.1-.8-.2-1.3-.2h-1.9v7.5l.9-.2v-3.5h.1l3.2 3.7.8-.5-2.4-2.7c.2 0 .5-.1.7-.2zm-2.4-.4v-2.8h1.1c.3 0 .6 0 .8.1.2.1.4.2.5.3.1.1.2.3.3.5.1.2.1.3.1.5 0 .4-.2.7-.5 1-.3.3-.8.4-1.4.4h-.9zM58.4 40v-26.4h6.1c1.1 0 2.1.2 2.9.5.8.4 1.6.9 2.1 1.5.6.6 1 1.3 1.3 2.2.3.8.4 1.7.4 2.6v3.4c0 .9-.1 1.8-.4 2.6-.3.8-.7 1.5-1.3 2.2-.6.6-1.3 1.1-2.1 1.5-.8.4-1.8.5-2.9.5h-1.5l-1.3-3.1v12.5h-3.3zm6.1-12.5c1.2 0 2.1-.4 2.7-1.1.6-.7.9-1.6.9-2.6v-3.4c0-1-.3-1.9-.9-2.6-.6-.7-1.5-1.1-2.7-1.1h-2.8v10.8h2.8zM85.2 20.3c-.1-1.3-.4-2.3-1-2.9-.6-.6-1.5-.9-2.6-.9h-1.1c-1.2 0-2 .3-2.7 1-.6.7-.9 1.7-.9 3.2v12.2c0 1.4.3 2.5.9 3.2.6.7 1.5 1 2.7 1h1.1c1.2 0 2-.3 2.7-1 .6-.7.9-1.7.9-3.2v-11.1l3.2-1.3v12.4c0 2.3-.6 4.1-1.7 5.4-1.1 1.3-2.8 1.9-5 1.9h-1.1c-2.2 0-3.9-.6-5-1.9-1.1-1.3-1.7-3.1-1.7-5.4v-12.2c0-2.3.6-4.1 1.7-5.4 1.1-1.3 2.8-1.9 5-1.9h1.1c1 0 1.9.1 2.7.4.8.3 1.5.7 2.1 1.2.6.5 1.1 1.2 1.4 2 .3.8.5 1.7.5 2.8v.5h-3.2zM96.5 37c1.2 0 2.2-.3 2.9-.9.7-.6 1-1.3 1-2.1v-2.3c0-.9-.3-1.7-1-2.3-.7-.6-1.6-1-2.9-1h-4.1l-1.3-3.1h5.3c1.2 0 2.1-.3 2.7-1 .6-.6.9-1.4.9-2.3v-2.3c0-.8-.3-1.5-.9-2.1-.6-.6-1.5-.9-2.7-.9h-6.1v-3.1h6.1c1.1 0 2.1.2 2.9.5.8.3 1.6.8 2.1 1.3.6.6 1 1.2 1.3 1.9.3.7.4 1.5.4 2.3v2.4c0 1-.2 1.9-.6 2.7-.4.8-1.1 1.5-1.9 2.1.9.5 1.6 1.2 2.2 2.1.5.9.8 1.8.8 2.8v2.3c0 .8-.2 1.6-.5 2.3-.3.7-.8 1.4-1.4 1.9-.6.6-1.3 1-2.2 1.3-.9.3-1.9.5-3 .5h-6.1v-3h6.1zM117.8 13.6h3.3l-6.1 21.3c-.2.5-.3 1.1-.5 1.7-.2.6-.5 1.2-.8 1.7-.3.5-.8 1-1.3 1.3-.5.3-1.2.5-2 .5h-2.2v-3.1h2.2c.3 0 .5-.1.7-.3.2-.2.3-.4.4-.7.1-.3.2-.6.2-.9l.2-.9-6.3-20.7h3.3l3.9 12.7c.2.6.4 1.3.5 1.9l.3 1.9c.1-.7.2-1.3.2-1.9l.3-1.9 3.7-12.6zM136.6 13.6h4.1v26.4h-3.2v-18.6l-.2 1.3-3.8 13.8h-2.9l-3.8-13.8-.2-1.3v18.6h-3.2v-26.4h4.1l3.5 12.5c.4 1.6.7 3.2 1 4.9.2-.8.3-1.6.5-2.5.2-.9.3-1.7.5-2.4l3.6-12.5zM147.8 25.2v14.8h-3.2v-26.4h3.2v11.6h7.5v-11.6h3.2v26.4h-3.2v-11.6h-6.2l-1.3-3.2zM173.2 28.4l.3-7.3-8 19h-2.9v-26.5h3.2v11.7l-.3 7.2c1.3-3.1 2.7-6.3 4-9.5 1.4-3.2 2.7-6.3 4-9.4h3v26.4h-3.2v-11.6zM183.5 25.9v14.1h-3.2v-26.4h3.2v11.7h.7l6.9-11.7h3.6l-7.6 12.9 8 13.6h-3.6l-6.9-11.7-1.1-2.5zM207.9 28.4l.3-7.3-8 19h-2.9v-26.5h3.2v11.7l-.3 7.2c1.3-3.1 2.7-6.3 4-9.5 1.4-3.2 2.7-6.3 4-9.4h3v26.4h-3.2v-11.6zM29.1 26.6c2.3 0 4.2-1.9 4.2-4.2 0-1-.3-1.9-.9-2.6-.5-.6-1.2-1.1-1.9-1.4-.4-.1-.9-.2-1.4-.2-2.3 0-4.2 1.9-4.2 4.2s1.9 4.2 4.2 4.2zm0-7.9c.4 0 .8.1 1.2.2.7.2 1.2.6 1.7 1.2s.8 1.4.8 2.3c0 2-1.6 3.6-3.6 3.6s-3.6-1.6-3.6-3.6 1.5-3.7 3.5-3.7zM22.8 26.8l.9 1.3.9-1.3.9-1.2c-.6-.1-1.2-.1-1.8-.1-.6 0-1.2 0-1.8.1l.9 1.2zM29.1 24.2c1 0 1.8-.8 1.8-1.8s-.8-1.8-1.8-1.8-1.8.8-1.8 1.8.8 1.8 1.8 1.8zM20.1 22.4c0-1-.8-1.8-1.8-1.8s-1.8.8-1.8 1.8.8 1.8 1.8 1.8 1.8-.8 1.8-1.8zM22.5 22.4c0-2.3-1.9-4.2-4.2-4.2-.5 0-1 .1-1.4.2-.7.3-1.4.7-1.9 1.3-.6.7-.9 1.6-.9 2.7 0 2.3 1.9 4.2 4.2 4.2 2.3 0 4.2-1.9 4.2-4.2zm-7.8 0c0-.9.3-1.7.8-2.3.4-.5 1-.9 1.6-1.2.4-.1.8-.2 1.2-.2 2 0 3.6 1.6 3.6 3.6s-1.6 3.7-3.6 3.7-3.6-1.6-3.6-3.6zM23.7 47.4c13.1 0 23.7-10.6 23.7-23.7s-10.6-23.7-23.7-23.7-23.7 10.6-23.7 23.7 10.6 23.7 23.7 23.7zm11.3-21.9c1.5.6 2.1 3 1.4 5.4-.7 2.3-2.5 3.8-4 3.6 1.7-2 2.7-4.5 2.7-7.3v-1.7zm-22.1-13.9v-.1c1.1 1.9 5.5 3.2 10.7 3.2 5.3 0 9.7-1.4 10.7-3.2v15.7c0 5.9-4.8 10.8-10.8 10.8s-10.8-4.8-10.8-10.8v-15.6zm-.5 13.9v1.7c0 2.8 1 5.3 2.7 7.3-1.6.2-3.3-1.3-4-3.6-.8-2.4-.2-4.7 1.3-5.4z"/></svg>