<?xml version="1.0" encoding="utf-8"?>
<!-- Generator: Adobe Illustrator 23.0.3, SVG Export Plug-In . SVG Version: 6.00 Build 0)  -->
<svg version="1.1" id="Слой_1" xmlns="http://www.w3.org/2000/svg" xmlns:xlink="http://www.w3.org/1999/xlink" x="0px" y="0px"
	 viewBox="0 0 1178.36 306.25" style="enable-background:new 0 0 1178.36 306.25;" xml:space="preserve">
<style type="text/css">
	.st0{fill:#FFFFFF;}
	.st1{fill:#FFD267;}
	.st2{fill:#FFEDC0;}
	.st3{fill:#FFB913;}
	.st4{fill:#606060;}
	.st5{fill:#F99440;}
	.st6{fill:#F88B40;}
	.st7{fill:#D9CFBE;}
	.st8{fill:#DFD7CA;}
	.st9{fill:#FFE158;}
	.st10{fill:#FFD70B;}
	.st11{fill:#525252;}
	.st12{fill:#F9C044;}
</style>
<g>
	<g>
		<path class="st0" d="M49.11,92.01l-4.51-2.17c1.15-2.4,3.12-6.07,5.94-9.93c6.58-9.03,16.37-14.65,27.56-15.81
			c11.47-1.2,23.02,2.58,31.67,10.37c2.4,2.16,6.21,4.99,14.52,7.79c2.49,0.84,7.43,0.22,12.66-0.44c9.76-1.23,21.9-2.76,29.3,3.74
			l-3.3,3.76c-5.71-5.01-16.16-3.7-25.37-2.53c-6.07,0.76-11.3,1.42-14.88,0.22c-7.16-2.42-12.18-5.13-16.27-8.82
			c-7.61-6.85-17.74-10.17-27.81-9.12c-9.76,1.02-18.3,5.92-24.04,13.79C51.98,86.42,50.17,89.8,49.11,92.01z"/>
	</g>
	<g>
		<g>
			<path class="st1" d="M71.48,34.53c-9.89-7.37,2.46-28.68,6.54-29.09c4.08-0.41,4.67,8.06,4.67,8.06s5.43-6.07,9.22-3.2
				c3.8,2.86-2.5,9.26-2.5,9.26s8.39-1.59,9.32,2.86S81.37,41.89,71.48,34.53z"/>
		</g>
		<g>
			<g>
				<g>
					<path class="st2" d="M75.29,63.15l1.32-1.75c-0.98-0.36-3.42-3.69-7.24-8.23l-2,1.32C69.28,56.76,73.54,62.6,75.29,63.15z"/>
				</g>
			</g>
			<g>
				<g>
					<path class="st2" d="M75.77,60.91c4.15,0.39,9.92,1.87,8.89,7.3c-0.26,1.37-2.32,0.69-2.06-0.66c0.66-3.46-4.3-4.22-6.94-4.47
						C74.27,62.95,74.37,60.78,75.77,60.91L75.77,60.91z"/>
				</g>
			</g>
			<g>
				<g>
					<path class="st2" d="M76.06,61.13c1.79,1.02,3.92,2.46,4.88,4.34c0.97,1.92,0.21,4.49-1.38,5.86
						c-1.06,0.91-2.53-0.68-1.47-1.59c3.08-2.65-0.95-5.5-3.2-6.78C73.69,62.27,74.86,60.45,76.06,61.13L76.06,61.13z"/>
				</g>
			</g>
			<g>
				<g>
					<path class="st2" d="M76.09,61.73c0.84,1.72,1.58,3.66,1.75,5.58c0.16,1.73-0.69,4.67-2.69,5.09
						c-1.36,0.28-1.81-1.84-0.44-2.12c-0.13,0.03-0.11,0.08,0.11-0.15c0.39-0.41,0.73-1.07,0.85-1.61c0.17-0.79-0.05-1.67-0.25-2.43
						c-0.3-1.16-0.74-2.29-1.26-3.36C73.56,61.47,75.48,60.48,76.09,61.73L76.09,61.73z"/>
				</g>
			</g>
		</g>
		<g>
			<g>
				<path class="st2" d="M57.48,72.43l1.32-1.75c-0.98-0.36-2.6-4.75-5.47-9.97l-2,1.32C52.58,64.81,55.73,71.87,57.48,72.43z"/>
			</g>
		</g>
		<g>
			<g>
				<path class="st2" d="M57.96,70.19c4.15,0.39,9.92,1.87,8.89,7.3c-0.26,1.37-2.32,0.69-2.06-0.66c0.66-3.46-4.3-4.22-6.94-4.47
					C56.46,72.23,56.57,70.06,57.96,70.19L57.96,70.19z"/>
			</g>
		</g>
		<g>
			<g>
				<path class="st2" d="M58.26,70.41c1.79,1.02,3.92,2.46,4.88,4.34c0.97,1.92,0.21,4.49-1.38,5.86c-1.06,0.91-2.53-0.68-1.47-1.59
					c3.08-2.65-0.95-5.5-3.2-6.78C55.88,71.55,57.05,69.72,58.26,70.41L58.26,70.41z"/>
			</g>
		</g>
		<g>
			<g>
				<path class="st2" d="M58.29,71.01c0.84,1.72,1.58,3.66,1.75,5.58c0.16,1.73-0.69,4.67-2.69,5.09c-1.36,0.28-1.81-1.84-0.44-2.12
					c-0.13,0.03-0.11,0.08,0.11-0.15c0.39-0.41,0.73-1.07,0.85-1.61c0.17-0.79-0.05-1.67-0.25-2.43c-0.3-1.16-0.74-2.29-1.26-3.36
					C55.75,70.75,57.68,69.75,58.29,71.01L58.29,71.01z"/>
			</g>
		</g>
		<g>
			<path class="st3" d="M54.9,59.17L54.9,59.17c-14.69,3.53-29.47-5.52-32.99-20.21l-1.25-5.2C17.13,19.06,26.18,4.29,40.88,0.76
				l0,0c14.69-3.53,29.47,5.52,32.99,20.21l1.25,5.2C78.65,40.87,69.6,55.64,54.9,59.17z"/>
		</g>
		<g>
			<g>
				<circle class="st0" cx="58.87" cy="17.55" r="3.61"/>
			</g>
			<g>
				<circle class="st4" cx="58.83" cy="17.59" r="2.5"/>
			</g>
			<g>
				<circle class="st0" cx="60.4" cy="18.6" r="1.27"/>
			</g>
		</g>
		<g>
			<g>
				<circle class="st0" cx="35.3" cy="28.04" r="3.61"/>
			</g>
			<g>
				<circle class="st4" cx="35.26" cy="28.07" r="2.5"/>
			</g>
			<g>
				<circle class="st0" cx="36.77" cy="29.42" r="1.27"/>
			</g>
		</g>
		<g>
			<g>
				<polygon class="st5" points="48.16,24.77 61.93,30.51 48.97,37.39 				"/>
			</g>
			<g>
				
					<ellipse transform="matrix(0.9981 -0.0609 0.0609 0.9981 -1.8054 3.0065)" class="st5" cx="48.39" cy="31.1" rx="1.58" ry="6.33"/>
			</g>
			<g>
				<path class="st6" d="M61.95,30.53l-13.07,6.91c0,0-1.21,0.51-1.93-4.51C48.25,35.06,61.95,30.53,61.95,30.53z"/>
			</g>
		</g>
		<g>
			<path class="st1" d="M29.94,41.16c-3.53-11.82-27.79-7.52-29.57-3.83s5.97,7.15,5.97,7.15s-7.56,3.02-6.17,7.57
				s9.56,0.83,9.56,0.83s-4.37,7.34-0.51,9.73S33.47,52.98,29.94,41.16z"/>
		</g>
		<g>
			
				<ellipse transform="matrix(0.8891 -0.4578 0.4578 0.8891 -16.0147 35.7452)" class="st3" cx="65.75" cy="50.92" rx="8.25" ry="7.67"/>
		</g>
		<g>
			
				<ellipse transform="matrix(0.9565 -0.2917 0.2917 0.9565 -14.7988 17.289)" class="st3" cx="50.57" cy="58.27" rx="8.25" ry="7.67"/>
		</g>
	</g>
	<g>
		<path class="st0" d="M1129.26,93.91c-1.06-2.21-2.88-5.6-5.47-9.15c-5.74-7.87-14.28-12.77-24.04-13.79
			c-10.07-1.05-20.2,2.27-27.81,9.12c-4.09,3.68-9.11,6.4-16.27,8.82c-3.58,1.21-8.82,0.55-14.88-0.22
			c-9.22-1.16-19.67-2.47-25.37,2.53l-3.3-3.76c7.4-6.5,19.54-4.97,29.3-3.74c5.23,0.66,10.17,1.28,12.66,0.44
			c8.31-2.8,12.13-5.64,14.52-7.79c8.66-7.79,20.2-11.57,31.67-10.37c11.19,1.17,20.98,6.78,27.56,15.81
			c2.82,3.86,4.78,7.53,5.94,9.93L1129.26,93.91z"/>
	</g>
	<g>
		<g>
			<path class="st7" d="M1106.89,36.43c9.89-7.37-2.46-28.68-6.54-29.09c-4.08-0.41-4.67,8.06-4.67,8.06s-5.43-6.07-9.22-3.2
				c-3.8,2.86,2.5,9.26,2.5,9.26s-8.39-1.59-9.32,2.86C1078.71,28.76,1097,43.8,1106.89,36.43z"/>
		</g>
		<g>
			<g>
				<g>
					<path class="st2" d="M1103.08,65.05l-1.32-1.75c0.98-0.36,3.42-3.69,7.24-8.23l2,1.32
						C1109.08,58.66,1104.83,64.5,1103.08,65.05z"/>
				</g>
			</g>
			<g>
				<g>
					<path class="st2" d="M1102.6,62.82c-4.15,0.39-9.92,1.87-8.89,7.3c0.26,1.37,2.32,0.69,2.06-0.66
						c-0.66-3.46,4.3-4.22,6.94-4.47C1104.1,64.85,1103.99,62.69,1102.6,62.82L1102.6,62.82z"/>
				</g>
			</g>
			<g>
				<g>
					<path class="st2" d="M1102.3,63.04c-1.79,1.02-3.92,2.46-4.88,4.34c-0.97,1.92-0.21,4.49,1.38,5.86
						c1.06,0.91,2.53-0.68,1.47-1.59c-3.08-2.65,0.95-5.5,3.2-6.78C1104.68,64.17,1103.51,62.35,1102.3,63.04L1102.3,63.04z"/>
				</g>
			</g>
			<g>
				<g>
					<path class="st2" d="M1102.27,63.64c-0.84,1.72-1.58,3.66-1.75,5.58c-0.16,1.73,0.69,4.67,2.69,5.09
						c1.36,0.28,1.81-1.84,0.44-2.12c0.13,0.03,0.11,0.08-0.11-0.15c-0.39-0.41-0.73-1.07-0.85-1.61c-0.17-0.79,0.05-1.67,0.25-2.43
						c0.3-1.16,0.74-2.29,1.26-3.36C1104.81,63.38,1102.88,62.38,1102.27,63.64L1102.27,63.64z"/>
				</g>
			</g>
		</g>
		<g>
			<g>
				<path class="st2" d="M1120.88,74.33l-1.32-1.75c0.98-0.36,2.6-4.75,5.47-9.97l2,1.32C1125.79,66.71,1122.64,73.78,1120.88,74.33
					z"/>
			</g>
		</g>
		<g>
			<g>
				<path class="st2" d="M1120.4,72.09c-4.15,0.39-9.92,1.87-8.89,7.3c0.26,1.37,2.32,0.69,2.06-0.66c-0.66-3.46,4.3-4.22,6.94-4.47
					C1121.9,74.13,1121.8,71.96,1120.4,72.09L1120.4,72.09z"/>
			</g>
		</g>
		<g>
			<g>
				<path class="st2" d="M1120.11,72.31c-1.79,1.02-3.92,2.46-4.88,4.34c-0.97,1.92-0.21,4.49,1.38,5.86
					c1.06,0.91,2.53-0.68,1.47-1.59c-3.08-2.65,0.95-5.5,3.2-6.78C1122.49,73.45,1121.32,71.62,1120.11,72.31L1120.11,72.31z"/>
			</g>
		</g>
		<g>
			<g>
				<path class="st2" d="M1120.08,72.91c-0.84,1.72-1.58,3.66-1.75,5.58c-0.16,1.73,0.69,4.67,2.69,5.09
					c1.36,0.28,1.81-1.84,0.44-2.12c0.13,0.03,0.11,0.08-0.11-0.15c-0.39-0.41-0.73-1.07-0.85-1.61c-0.17-0.79,0.05-1.67,0.25-2.43
					c0.3-1.16,0.74-2.29,1.26-3.36C1122.61,72.65,1120.69,71.66,1120.08,72.91L1120.08,72.91z"/>
			</g>
		</g>
		<g>
			<path class="st8" d="M1123.46,61.07L1123.46,61.07c14.69,3.53,29.47-5.52,32.99-20.21l1.25-5.2
				c3.53-14.69-5.52-29.47-20.21-32.99v0c-14.69-3.53-29.47,5.52-32.99,20.21l-1.25,5.2C1099.72,42.77,1108.77,57.54,1123.46,61.07z
				"/>
		</g>
		<g>
			<g>
				<circle class="st0" cx="1119.5" cy="19.45" r="3.61"/>
			</g>
			<g>
				<circle class="st4" cx="1119.53" cy="19.49" r="2.5"/>
			</g>
			<g>
				<circle class="st0" cx="1117.97" cy="20.5" r="1.27"/>
			</g>
		</g>
		<g>
			<g>
				<circle class="st0" cx="1143.06" cy="29.94" r="3.61"/>
			</g>
			<g>
				<circle class="st4" cx="1143.1" cy="29.98" r="2.5"/>
			</g>
			<g>
				<circle class="st0" cx="1141.59" cy="31.32" r="1.27"/>
			</g>
		</g>
		<g>
			<g>
				<polygon class="st9" points="1130.2,26.68 1116.43,32.41 1129.39,39.3 				"/>
			</g>
			<g>
				
					<ellipse transform="matrix(0.0609 -0.9981 0.9981 0.0609 1028.1735 1158.87)" class="st9" cx="1129.98" cy="33" rx="6.33" ry="1.58"/>
			</g>
			<g>
				<path class="st10" d="M1116.42,32.43l13.07,6.91c0,0,1.21,0.51,1.93-4.51C1130.12,36.96,1116.42,32.43,1116.42,32.43z"/>
			</g>
		</g>
		<g>
			<path class="st7" d="M1148.42,43.07c3.53-11.82,27.79-7.52,29.57-3.83s-5.97,7.15-5.97,7.15s7.56,3.02,6.17,7.57
				s-9.56,0.83-9.56,0.83s4.37,7.34,0.51,9.73C1165.29,66.91,1144.89,54.88,1148.42,43.07z"/>
		</g>
		<g>
			
				<ellipse transform="matrix(0.4578 -0.8891 0.8891 0.4578 556.3533 1017.8451)" class="st8" cx="1112.61" cy="52.82" rx="7.67" ry="8.25"/>
		</g>
		<g>
			
				<ellipse transform="matrix(0.2917 -0.9565 0.9565 0.2917 741.2202 1121.3458)" class="st8" cx="1127.79" cy="60.17" rx="7.67" ry="8.25"/>
		</g>
	</g>
	<g>
		<path class="st0" d="M1025.81,257.23c-338.31,110.3-870.89,0-870.89,0V83.62c0,0,451.39,74.04,870.89,0
			C1026.05,122.42,1024.04,228.13,1025.81,257.23z"/>
	</g>
	<g>
		<g>
			<path class="st11" d="M305.1,163.8c-0.37,4.24-1.71,7.4-4.03,9.49c-2.32,2.09-5.47,2.96-9.43,2.6s-6.9-1.78-8.81-4.25
				s-2.66-5.84-2.25-10.1c0.4-4.26,1.77-7.41,4.09-9.46c2.32-2.05,5.45-2.89,9.39-2.53s6.85,1.76,8.75,4.21
				C304.7,156.2,305.47,159.55,305.1,163.8z M286.3,162.11c-0.27,2.86,0.08,5.06,1.04,6.61c0.96,1.55,2.53,2.42,4.71,2.62
				c4.37,0.4,6.81-2.29,7.32-8.04c0.51-5.77-1.39-8.84-5.71-9.23c-2.17-0.2-3.87,0.38-5.1,1.73
				C287.32,157.14,286.57,159.25,286.3,162.11z"/>
			<path class="st11" d="M328.9,178.7c-2.19-0.17-3.28-0.26-5.47-0.44c0.68-8.44,1.03-12.66,1.71-21.09
				c-2.52-0.2-3.78-0.31-6.29-0.52c-0.19,0.93-0.29,1.39-0.48,2.32c-1.22,5.91-2.22,10.04-2.98,12.41
				c-0.76,2.36-1.72,3.99-2.88,4.88c-1.16,0.89-2.66,1.23-4.47,1.07c-0.98-0.09-1.85-0.29-2.58-0.61c0.15-1.78,0.23-2.67,0.38-4.45
				c0.66,0.29,1.29,0.46,1.9,0.52c0.62,0.05,1.14-0.19,1.56-0.72s0.85-1.56,1.3-3.06s1.1-3.99,1.93-7.44s1.56-6.72,2.2-9.81
				c6.48,0.55,9.72,0.81,16.2,1.33C330.12,163.33,329.72,168.46,328.9,178.7z"/>
			<path class="st11" d="M334.53,179.15c0.8-10.25,1.19-15.37,1.99-25.62c2.18,0.17,3.27,0.25,5.44,0.42
				c-0.78,10.25-1.17,15.38-1.95,25.63C337.82,179.4,336.72,179.32,334.53,179.15z"/>
			<path class="st11" d="M356.58,180.78c-1.92-8.22-2.88-12.33-4.77-20.56c-0.06,0-0.1-0.01-0.16-0.01
				c-0.08,4.11-0.16,6.84-0.26,8.21c-0.35,4.77-0.52,7.15-0.87,11.92c-1.96-0.14-2.94-0.21-4.9-0.36
				c0.76-10.25,1.14-15.38,1.9-25.63c2.96,0.22,4.45,0.33,7.41,0.54c1.87,8.02,2.81,12.02,4.7,20.04c0.04,0,0.06,0,0.11,0.01
				c3.14-7.66,4.71-11.49,7.82-19.16c2.97,0.2,4.45,0.3,7.42,0.5c-0.68,10.26-1.01,15.39-1.69,25.64c-2.05-0.13-3.07-0.2-5.12-0.34
				c0.33-4.85,0.49-7.28,0.82-12.14c0.04-0.57,0.09-1.23,0.16-1.98s0.28-2.73,0.64-5.95c-0.06,0-0.1-0.01-0.16-0.01
				c-3.19,7.85-4.8,11.78-8.03,19.63C359.6,181,358.59,180.93,356.58,180.78z"/>
			<path class="st11" d="M399.4,183.54c-2.19-0.13-3.28-0.19-5.47-0.32c0.5-8.45,0.75-12.68,1.26-21.13
				c-3.79-0.23-5.68-0.34-9.47-0.58c-0.53,8.45-0.79,12.67-1.32,21.12c-2.2-0.14-3.29-0.21-5.49-0.35
				c0.66-10.26,0.99-15.39,1.64-25.65c8.13,0.52,12.2,0.77,20.33,1.24C400.29,168.15,399.99,173.28,399.4,183.54z"/>
			<path class="st11" d="M405.03,183.86c0.58-10.26,0.87-15.4,1.44-25.66c2.18,0.12,3.27,0.18,5.45,0.3
				c-0.56,10.26-0.84,15.4-1.4,25.66C408.32,184.05,407.23,183.99,405.03,183.86z"/>
			<path class="st11" d="M432,185.27c-0.63-2.48-0.95-3.72-1.58-6.2c-3.77-0.18-5.66-0.28-9.43-0.47c-0.88,2.41-1.31,3.61-2.19,6.01
				c-2.37-0.12-3.55-0.19-5.92-0.31c4.21-10.11,6.3-15.17,10.46-25.29c2.67,0.14,4,0.2,6.66,0.33c3.14,10.49,4.72,15.73,7.92,26.21
				C435.55,185.44,434.36,185.38,432,185.27z M429.33,174.44c-1.46-5.62-2.27-8.8-2.46-9.54s-0.31-1.32-0.38-1.74
				c-0.46,1.48-1.76,5.13-3.89,10.94C425.29,174.24,426.64,174.31,429.33,174.44z"/>
			<path class="st11" d="M437.4,180.98c0.8,0.04,1.2,0.06,2,0.09c1.87-3.32,3.37-6.65,4.51-9.99s2.03-6.97,2.69-10.87
				c5.99,0.26,8.99,0.39,14.99,0.62c-0.33,8.46-0.5,12.69-0.83,21.15c1.38,0.05,2.07,0.08,3.45,0.13
				c-0.18,4.81-0.28,7.21-0.46,12.01c-2.13-0.08-3.19-0.12-5.31-0.21c0.12-2.99,0.18-4.49,0.3-7.48c-6.5-0.26-9.74-0.4-16.24-0.69
				c-0.13,2.99-0.2,4.49-0.33,7.48c-2.12-0.09-3.19-0.14-5.31-0.24C437.06,188.19,437.17,185.79,437.4,180.98z M450.72,164.93
				c-0.49,2.67-1.24,5.48-2.24,8.44c-1.01,2.96-2.11,5.62-3.31,7.97c4.04,0.18,6.06,0.26,10.11,0.43c0.27-6.65,0.41-9.97,0.68-16.62
				C453.86,165.06,452.82,165.02,450.72,164.93z"/>
			<path class="st11" d="M482.97,187.32c-0.67-2.47-1.01-3.7-1.68-6.18c-3.77-0.12-5.66-0.19-9.43-0.33
				c-0.84,2.42-1.26,3.63-2.1,6.04c-2.37-0.09-3.55-0.13-5.92-0.22c4.05-10.17,6.07-15.26,10.06-25.45c2.67,0.09,4,0.14,6.67,0.23
				c3.3,10.44,4.96,15.66,8.32,26.09C486.52,187.43,485.34,187.4,482.97,187.32z M480.14,176.53c-1.55-5.6-2.41-8.76-2.6-9.5
				c-0.19-0.73-0.33-1.31-0.41-1.74c-0.44,1.49-1.68,5.15-3.72,11C476.1,176.4,477.44,176.44,480.14,176.53z"/>
			<path class="st11" d="M498.25,177.7c2.71-3.12,4.07-4.69,6.77-7.82c1.52,0.88,2.29,1.31,3.81,2.19c-2.03,2.4-3.05,3.6-5.08,5.99
				c1.91,2.5,2.87,3.75,4.78,6.24c-1.57,0.8-2.36,1.2-3.93,1.99c-2.55-3.25-3.82-4.88-6.35-8.14
				C498.24,177.98,498.24,177.89,498.25,177.7z M507.19,177.94c2.7-3.13,4.04-4.7,6.73-7.84c1.53,0.87,2.3,1.31,3.83,2.18
				c-2.02,2.4-3.04,3.6-5.07,6c1.92,2.49,2.88,3.74,4.8,6.23c-1.58,0.8-2.37,1.2-3.95,2c-2.55-3.25-3.82-4.87-6.36-8.12
				C507.19,178.22,507.19,178.12,507.19,177.94z"/>
			<path class="st11" d="M542.46,188.72c-2.19-0.03-3.29-0.05-5.48-0.08c0.07-4.44,0.11-6.65,0.18-11.09
				c-4.09-0.07-6.14-0.1-10.23-0.18c-0.09,4.44-0.13,6.65-0.21,11.09c-2.2-0.04-3.3-0.06-5.5-0.11c0.21-10.28,0.32-15.42,0.54-25.69
				c2.18,0.05,3.27,0.07,5.46,0.11c-0.08,4.03-0.12,6.04-0.19,10.07c4.09,0.08,6.13,0.11,10.22,0.18c0.06-4.03,0.1-6.04,0.16-10.07
				c2.17,0.04,3.26,0.05,5.44,0.08C542.68,173.3,542.61,178.44,542.46,188.72z"/>
			<path class="st11" d="M563.97,188.96c-0.73-2.45-1.1-3.68-1.83-6.13c-3.77-0.03-5.66-0.05-9.44-0.09
				c-0.78,2.44-1.17,3.66-1.95,6.09c-2.37-0.03-3.55-0.04-5.92-0.08c3.8-10.27,5.69-15.41,9.44-25.69c2.67,0.03,4,0.04,6.67,0.07
				c3.55,10.35,5.35,15.53,8.96,25.87C567.52,188.99,566.34,188.98,563.97,188.96z M560.87,178.24c-1.68-5.56-2.62-8.7-2.83-9.43
				c-0.21-0.73-0.36-1.3-0.45-1.73c-0.4,1.5-1.55,5.19-3.45,11.09C556.83,178.21,558.18,178.22,560.87,178.24z"/>
			<path class="st11" d="M601.14,163.35c-3.16,7.28-4.75,10.92-7.94,18.19c-1,2.29-1.94,3.93-2.82,4.92s-1.92,1.74-3.13,2.22
				s-2.67,0.73-4.4,0.72c-1.48,0-2.86-0.18-4.13-0.54c0.01-1.87,0.01-2.81,0.02-4.68c1.04,0.43,2.33,0.64,3.88,0.64
				c0.98,0,1.77-0.22,2.38-0.67s1.11-1.23,1.51-2.34c-3.57-7.39-5.35-11.08-8.88-18.48c2.31,0.01,3.46,0.01,5.77,0.02
				c2.52,5.74,3.79,8.6,6.33,14.33c0.07,0,0.11,0,0.18,0c0.13-0.35,0.19-0.53,0.32-0.88c2.13-5.38,3.2-8.07,5.32-13.45
				C597.78,163.36,598.9,163.35,601.14,163.35z"/>
			<path class="st11" d="M621.33,171.23c0.03,2.77-0.82,4.89-2.55,6.37c-1.73,1.48-4.19,2.23-7.4,2.25
				c-0.94,0.01-1.41,0.01-2.35,0.01c0.02,3.66,0.03,5.48,0.05,9.14c-2.2,0.01-3.3,0.02-5.5,0.03c-0.04-10.28-0.06-15.42-0.1-25.7
				c3.29-0.01,4.93-0.02,8.22-0.04c3.12-0.02,5.5,0.63,7.14,1.96C620.47,166.58,621.31,168.57,621.33,171.23z M609.01,175.41
				c0.72,0,1.08-0.01,1.8-0.01c1.68-0.01,2.94-0.35,3.77-1.02s1.24-1.64,1.23-2.9c-0.01-1.28-0.37-2.22-1.07-2.82
				c-0.7-0.6-1.8-0.9-3.29-0.89c-0.99,0.01-1.49,0.01-2.49,0.01C608.98,170.83,608.99,172.35,609.01,175.41z"/>
			<path class="st11" d="M648.79,175.66c0.08,4.25-0.93,7.54-3.02,9.86s-5.12,3.51-9.1,3.57c-3.97,0.06-7.04-1.05-9.19-3.31
				c-2.15-2.26-3.25-5.53-3.29-9.81c-0.04-4.28,0.98-7.55,3.08-9.83c2.09-2.28,5.12-3.44,9.07-3.5c3.95-0.06,6.99,1.03,9.13,3.27
				S648.72,171.4,648.79,175.66z M629.94,175.94c0.03,2.87,0.61,5.03,1.72,6.47c1.12,1.44,2.77,2.14,4.95,2.11
				c4.38-0.06,6.53-2.99,6.43-8.76c-0.09-5.79-2.31-8.65-6.64-8.59c-2.17,0.03-3.8,0.78-4.89,2.25
				C630.44,170.9,629.91,173.07,629.94,175.94z"/>
			<path class="st11" d="M674.63,187.99c-2.5,0.06-3.75,0.09-6.24,0.15c-3.88-5.12-5.82-7.68-9.67-12.81
				c0.11,5.21,0.16,7.81,0.27,13.02c-2.2,0.05-3.3,0.07-5.5,0.11c-0.2-10.28-0.29-15.42-0.49-25.7c2.18-0.04,3.27-0.06,5.46-0.11
				c0.1,4.98,0.16,7.47,0.26,12.44c3.6-5.05,5.39-7.58,8.96-12.65c2.32-0.05,3.48-0.08,5.81-0.14c-3.63,5.03-5.45,7.54-9.1,12.56
				C668.46,180.13,670.51,182.75,674.63,187.99z"/>
			<path class="st11" d="M685.36,178.08c-2.53,3.26-3.8,4.89-6.35,8.14c-1.58-0.79-2.36-1.19-3.94-1.99
				c1.91-2.5,2.86-3.75,4.76-6.25c-2.03-2.39-3.05-3.59-5.07-5.99c1.52-0.88,2.29-1.31,3.81-2.19c2.7,3.13,4.06,4.69,6.77,7.81
				C685.35,177.81,685.35,177.9,685.36,178.08z M694.31,177.81c-2.52,3.27-3.79,4.9-6.32,8.16c-1.58-0.79-2.37-1.19-3.94-1.98
				c1.9-2.5,2.85-3.75,4.74-6.26c-2.04-2.39-3.06-3.58-5.09-5.97c1.52-0.88,2.28-1.32,3.8-2.2c2.71,3.12,4.07,4.68,6.79,7.79
				C694.3,177.54,694.3,177.63,694.31,177.81z"/>
			<path class="st11" d="M729.92,173.22c0.18,4.25-0.74,7.56-2.77,9.93c-2.03,2.37-5.03,3.64-9.01,3.79
				c-3.97,0.15-7.06-0.88-9.27-3.08c-2.21-2.21-3.38-5.45-3.53-9.72c-0.15-4.27,0.8-7.58,2.84-9.91s5.03-3.57,8.98-3.72
				c3.95-0.15,7.02,0.86,9.21,3.04C728.55,165.74,729.74,168.96,729.92,173.22z M711.08,173.97c0.11,2.87,0.73,5.01,1.88,6.42
				c1.15,1.41,2.82,2.08,5,1.99c4.38-0.17,6.45-3.15,6.22-8.92c-0.24-5.78-2.52-8.59-6.85-8.42c-2.17,0.08-3.78,0.87-4.83,2.37
				C711.45,168.91,710.97,171.1,711.08,173.97z"/>
			<path class="st11" d="M744.92,163.89c-2.05,0.1-3.61,0.94-4.67,2.53c-1.06,1.59-1.53,3.76-1.4,6.51
				c0.26,5.72,2.55,8.49,6.88,8.29c1.82-0.09,4-0.64,6.54-1.67c0.09,1.83,0.13,2.74,0.22,4.56c-2.08,0.98-4.44,1.54-7.06,1.66
				c-3.77,0.18-6.71-0.83-8.8-3s-3.23-5.39-3.42-9.62c-0.12-2.67,0.27-5.03,1.16-7.08c0.89-2.05,2.22-3.65,3.99-4.81
				c1.78-1.15,3.89-1.79,6.34-1.9c2.5-0.12,5.03,0.36,7.61,1.45c-0.62,1.8-0.92,2.71-1.54,4.51c-0.99-0.41-1.97-0.76-2.96-1.05
				S745.86,163.85,744.92,163.89z"/>
			<path class="st11" d="M757.15,184.85c-0.52-10.27-0.78-15.4-1.3-25.67c2.18-0.11,3.27-0.17,5.45-0.28
				c0.54,10.27,0.8,15.4,1.34,25.66C760.45,184.69,759.35,184.74,757.15,184.85z"/>
			<path class="st11" d="M789.48,183.06c-2.19,0.13-3.28,0.2-5.47,0.33c-0.26-4.43-0.39-6.64-0.65-11.07
				c-4.09,0.24-6.13,0.36-10.22,0.58c0.25,4.43,0.37,6.64,0.62,11.07c-2.2,0.12-3.3,0.18-5.49,0.3c-0.55-10.26-0.83-15.4-1.38-25.66
				c2.18-0.12,3.27-0.18,5.45-0.3c0.22,4.02,0.33,6.03,0.56,10.06c4.08-0.23,6.13-0.34,10.21-0.58c-0.24-4.02-0.35-6.03-0.59-10.06
				c2.17-0.13,3.26-0.19,5.43-0.32C788.55,167.67,788.86,172.8,789.48,183.06z"/>
			<path class="st11" d="M812.81,173.52c0.36,5.34-3.02,8.26-10.15,8.72c-3.02,0.19-4.53,0.29-7.54,0.48
				c-0.64-10.26-0.96-15.39-1.59-25.65c2.18-0.14,3.27-0.2,5.45-0.34c0.25,3.94,0.38,5.9,0.63,9.84c0.86-0.05,1.29-0.08,2.15-0.14
				c3.36-0.22,6,0.29,7.93,1.52C811.59,169.18,812.64,171.04,812.81,173.52z M800.32,177.91c0.74-0.05,1.1-0.07,1.84-0.12
				c1.85-0.12,3.19-0.5,4.01-1.15c0.82-0.65,1.19-1.57,1.11-2.76c-0.08-1.18-0.57-2-1.47-2.47c-0.91-0.46-2.42-0.63-4.53-0.49
				c-0.56,0.04-0.84,0.05-1.39,0.09C800.05,173.78,800.14,175.16,800.32,177.91z"/>
			<path class="st11" d="M842.15,179.46c-7.24,0.55-10.85,0.82-18.09,1.33c-0.11-1.51-0.16-2.26-0.27-3.77
				c2.41-2.79,3.61-4.18,6.02-6.97c1.77-2.09,2.93-3.54,3.46-4.33c0.53-0.8,0.9-1.53,1.11-2.19c0.21-0.66,0.29-1.34,0.24-2.03
				c-0.08-1.03-0.42-1.77-1.02-2.23c-0.61-0.46-1.38-0.66-2.33-0.59c-1,0.07-1.95,0.37-2.85,0.9c-0.91,0.52-1.84,1.24-2.8,2.16
				c-1.28-1.31-1.92-1.97-3.2-3.28c1.19-1.17,2.18-2,2.98-2.5s1.68-0.91,2.65-1.22s2.06-0.51,3.27-0.6c1.6-0.12,3.04,0.07,4.32,0.56
				s2.29,1.24,3.05,2.24c0.76,1,1.19,2.18,1.29,3.53c0.09,1.18-0.03,2.3-0.37,3.37c-0.34,1.07-0.9,2.18-1.7,3.33
				s-2.22,2.82-4.29,4.99c-1.24,1.34-1.85,2.01-3.09,3.35c0.01,0.1,0.01,0.15,0.02,0.25c4.5-0.33,6.76-0.5,11.26-0.84
				C841.94,176.72,842.01,177.64,842.15,179.46z"/>
			<path class="st11" d="M860.73,165.09c0.37,4.47-0.1,7.85-1.4,10.11c-1.3,2.27-3.5,3.53-6.58,3.78c-2.98,0.24-5.32-0.7-7.01-2.8
				s-2.69-5.32-3.03-9.66c-0.35-4.52,0.13-7.91,1.43-10.17s3.47-3.5,6.51-3.75c2.96-0.24,5.29,0.7,6.99,2.82
				S860.38,160.77,860.73,165.09z M848.13,166.11c0.25,3.14,0.7,5.37,1.35,6.69c0.65,1.32,1.63,1.93,2.93,1.82
				c1.27-0.1,2.14-0.86,2.59-2.29s0.56-3.69,0.3-6.8c-0.25-3.14-0.72-5.38-1.4-6.7c-0.68-1.33-1.65-1.94-2.9-1.84
				c-1.28,0.1-2.14,0.86-2.58,2.28C847.98,160.68,847.88,162.96,848.13,166.11z"/>
			<path class="st11" d="M877.14,176.6c-2.19,0.19-3.28,0.28-5.47,0.47c-0.51-5.93-0.76-8.89-1.27-14.82
				c-0.06-0.98-0.09-1.46-0.16-2.44c-0.06-1.07-0.08-1.6-0.14-2.67c-0.83,0.98-1.4,1.62-1.73,1.93c-1.1,1.05-1.65,1.57-2.76,2.61
				c-1.16-1.22-1.74-1.82-2.89-3.04c3.1-2.9,4.64-4.36,7.72-7.27c1.78-0.15,2.67-0.23,4.46-0.39
				C875.8,161.24,876.25,166.36,877.14,176.6z"/>
			<path class="st11" d="M899.97,159.73c0.48,5.04-0.24,8.9-2.15,11.59c-1.91,2.69-5.04,4.23-9.4,4.62
				c-1.53,0.14-2.7,0.16-3.51,0.07c-0.16-1.74-0.23-2.61-0.39-4.34c1.01,0.16,2.06,0.19,3.14,0.09c1.83-0.17,3.3-0.57,4.43-1.21
				s1.95-1.56,2.47-2.75c0.52-1.2,0.73-2.8,0.64-4.8c-0.08,0.01-0.13,0.01-0.21,0.02c-0.58,1.16-1.29,2-2.15,2.53
				c-0.85,0.53-1.95,0.85-3.29,0.97c-2.25,0.2-4.08-0.35-5.5-1.67c-1.42-1.31-2.24-3.24-2.47-5.79c-0.24-2.74,0.35-4.98,1.77-6.71
				c1.42-1.73,3.47-2.72,6.16-2.97c1.9-0.17,3.59,0.12,5.1,0.87c1.5,0.75,2.72,1.94,3.64,3.55
				C899.18,155.43,899.75,157.4,899.97,159.73z M890.03,153.72c-1.12,0.1-1.97,0.57-2.53,1.4c-0.56,0.83-0.78,1.97-0.65,3.41
				c0.11,1.24,0.49,2.19,1.13,2.86c0.64,0.67,1.55,0.95,2.72,0.85c1.1-0.1,2.02-0.55,2.74-1.34c0.72-0.79,1.04-1.65,0.95-2.59
				c-0.13-1.39-0.6-2.53-1.43-3.42C892.15,154.01,891.17,153.62,890.03,153.72z"/>
		</g>
	</g>
	<g>
		<g>
			<path class="st12" d="M375.43,221.6c-0.24,2.75-1.29,4.79-3.16,6.09c-1.86,1.31-4.4,1.82-7.6,1.52
				c-0.94-0.09-1.41-0.13-2.35-0.22c-0.34,3.64-0.5,5.46-0.84,9.1c-2.2-0.2-3.3-0.31-5.5-0.51c0.97-10.23,1.45-15.35,2.42-25.58
				c3.28,0.31,4.92,0.46,8.19,0.76c3.11,0.28,5.42,1.16,6.92,2.64C375.03,216.89,375.66,218.95,375.43,221.6z M362.74,224.56
				c0.72,0.07,1.08,0.1,1.8,0.17c1.68,0.15,2.97-0.06,3.86-0.65c0.89-0.58,1.4-1.51,1.51-2.77c0.11-1.27-0.15-2.24-0.79-2.91
				c-0.64-0.67-1.71-1.07-3.2-1.21c-0.99-0.09-1.49-0.14-2.48-0.23C363.16,220,363.02,221.52,362.74,224.56z"/>
			<path class="st12" d="M392.82,240.8c-5.98-0.48-8.96-0.72-14.94-1.23c0.88-10.24,1.32-15.36,2.19-25.6
				c5.91,0.51,8.87,0.75,14.78,1.22c-0.14,1.78-0.21,2.67-0.35,4.45c-3.74-0.3-5.61-0.45-9.36-0.76c-0.19,2.25-0.28,3.37-0.47,5.62
				c3.49,0.29,5.24,0.43,8.73,0.71c-0.14,1.78-0.21,2.67-0.35,4.45c-3.5-0.28-5.25-0.42-8.74-0.71c-0.22,2.64-0.33,3.96-0.55,6.6
				c3.77,0.31,5.65,0.47,9.42,0.77C393.03,238.11,392.96,239,392.82,240.8z"/>
			<path class="st12" d="M410.57,220.56c-1.99-0.15-3.66,0.29-5,1.31s-2.16,2.52-2.45,4.5c4.47,0.34,6.7,0.5,11.17,0.82
				c-0.13,1.78-0.19,2.67-0.32,4.45c-4.49-0.32-6.73-0.49-11.22-0.83c0,2.09,0.54,3.75,1.64,4.97c1.1,1.22,2.76,1.92,4.98,2.08
				c2.02,0.15,4.5-0.13,7.43-0.83c-0.13,1.82-0.19,2.74-0.32,4.56c-1.29,0.38-2.54,0.63-3.77,0.75c-1.23,0.12-2.56,0.12-4.01,0.02
				c-4.07-0.3-7.1-1.67-9.08-4.09s-2.79-5.76-2.46-9.98c0.21-2.65,0.91-4.94,2.11-6.86c1.2-1.92,2.82-3.35,4.85-4.27
				s4.37-1.29,7.02-1.1c1.52,0.11,2.92,0.37,4.19,0.79c1.27,0.41,2.52,0.95,3.75,1.59c-0.9,1.71-1.36,2.57-2.26,4.28
				c-0.59-0.3-0.89-0.45-1.49-0.76C413.71,221.14,412.13,220.67,410.57,220.56z"/>
			<path class="st12" d="M433.41,222.12c-2.05-0.13-3.69,0.53-4.92,2s-1.94,3.57-2.12,6.32c-0.38,5.72,1.6,8.72,5.94,9
				c1.82,0.12,4.05-0.2,6.7-0.94c-0.11,1.82-0.17,2.74-0.28,4.56c-2.18,0.75-4.59,1.04-7.22,0.87c-3.78-0.24-6.59-1.57-8.44-3.96
				c-1.85-2.4-2.62-5.71-2.33-9.95c0.18-2.67,0.83-4.97,1.94-6.91s2.61-3.38,4.51-4.33c1.89-0.95,4.06-1.34,6.51-1.19
				c2.5,0.16,4.96,0.92,7.41,2.27c-0.81,1.73-1.22,2.59-2.03,4.31c-0.94-0.52-1.88-0.97-2.83-1.37S434.35,222.18,433.41,222.12z"/>
			<path class="st12" d="M453.29,244.87c-2.2-0.12-3.3-0.18-5.51-0.31c0.48-8.45,0.73-12.68,1.21-21.13
				c-2.8-0.16-4.19-0.24-6.99-0.41c0.11-1.81,0.16-2.72,0.27-4.53c7.76,0.47,11.64,0.69,19.41,1.09c-0.09,1.81-0.14,2.72-0.24,4.53
				c-2.8-0.15-4.2-0.22-6.99-0.38C453.99,232.19,453.76,236.42,453.29,244.87z"/>
			<path class="st12" d="M482.16,228.59c-0.12,2.76-1.08,4.84-2.89,6.22c-1.81,1.39-4.31,2-7.53,1.85
				c-0.94-0.04-1.41-0.07-2.35-0.11c-0.18,3.65-0.27,5.48-0.45,9.13c-2.2-0.11-3.3-0.16-5.51-0.27c0.52-10.27,0.79-15.4,1.31-25.67
				c3.28,0.17,4.93,0.25,8.21,0.41c3.12,0.15,5.46,0.93,7.02,2.34C481.55,223.9,482.27,225.94,482.16,228.59z M469.61,232.09
				c0.72,0.04,1.08,0.05,1.8,0.09c1.68,0.08,2.96-0.19,3.83-0.81c0.87-0.62,1.33-1.57,1.39-2.83c0.06-1.28-0.25-2.23-0.92-2.88
				s-1.75-1-3.24-1.07c-0.99-0.05-1.49-0.07-2.48-0.12C469.83,227.52,469.75,229.05,469.61,232.09z"/>
			<path class="st12" d="M501.28,247.05c-0.67-2.47-1-3.71-1.66-6.18c-3.78-0.14-5.67-0.21-9.45-0.36
				c-0.85,2.41-1.28,3.62-2.13,6.04c-2.37-0.1-3.56-0.15-5.94-0.25c4.12-10.15,6.16-15.23,10.2-25.4c2.67,0.11,4,0.16,6.67,0.26
				c3.26,10.45,4.91,15.67,8.25,26.11C504.85,247.18,503.66,247.14,501.28,247.05z M498.48,236.26c-1.53-5.6-2.38-8.77-2.57-9.51
				c-0.19-0.73-0.32-1.31-0.4-1.74c-0.45,1.48-1.7,5.15-3.77,10.99C494.43,236.1,495.78,236.15,498.48,236.26z"/>
			<path class="st12" d="M530.26,243.59c1.55,0.04,2.32,0.06,3.87,0.09c-0.11,4.72-0.16,7.09-0.27,11.81
				c-2.13-0.05-3.2-0.07-5.33-0.13c0.07-2.99,0.11-4.49,0.19-7.49c-7.65-0.19-11.48-0.3-19.13-0.55c0.33-10.27,0.5-15.41,0.83-25.69
				c2.18,0.07,3.27,0.1,5.45,0.17c-0.26,8.46-0.38,12.69-0.64,21.15c3.82,0.12,5.73,0.17,9.55,0.27c0.22-8.46,0.33-12.69,0.56-21.16
				c2.17,0.06,3.26,0.08,5.44,0.14C530.57,230.77,530.46,235.05,530.26,243.59z"/>
			<path class="st12" d="M537.1,248.08c0.22-10.28,0.33-15.42,0.55-25.69c2.18,0.05,3.27,0.07,5.46,0.11
				c-0.2,10.28-0.3,15.42-0.49,25.69C540.41,248.15,539.31,248.12,537.1,248.08z"/>
			<path class="st12" d="M581.88,235.75c-0.01,4.22-1.02,7.48-3.03,9.77c-2.01,2.29-4.88,3.43-8.62,3.4
				c-3.43-0.03-6.12-1.03-8.06-3.01s-3.04-4.83-3.3-8.56c-1.98-0.03-2.97-0.04-4.96-0.07c-0.07,4.44-0.1,6.65-0.16,11.09
				c-2.21-0.03-3.31-0.05-5.51-0.09c0.17-10.28,0.26-15.42,0.43-25.7c2.18,0.04,3.27,0.05,5.46,0.09
				c-0.06,4.03-0.09,6.04-0.15,10.07c2.02,0.03,3.03,0.04,5.05,0.07c0.44-3.38,1.64-5.96,3.59-7.74s4.57-2.65,7.85-2.62
				c3.71,0.03,6.53,1.19,8.48,3.5C580.92,228.27,581.9,231.53,581.88,235.75z M564.53,235.63c-0.03,2.86,0.44,5.02,1.42,6.49
				s2.42,2.21,4.33,2.23c3.93,0.03,5.91-2.85,5.94-8.63c0.02-2.86-0.46-5.02-1.42-6.49c-0.96-1.47-2.4-2.21-4.31-2.23
				c-1.93-0.02-3.39,0.7-4.4,2.16C565.08,230.61,564.56,232.77,564.53,235.63z"/>
			<path class="st12" d="M612.65,230.86c0.02,2.77-0.82,4.89-2.55,6.37c-1.73,1.48-4.2,2.23-7.42,2.25c-0.94,0-1.41,0.01-2.36,0.01
				c0.01,3.66,0.02,5.48,0.04,9.14c-2.21,0.01-3.31,0.01-5.51,0.02c-0.02-10.28-0.03-15.42-0.05-25.7c3.29-0.01,4.93-0.01,8.22-0.03
				c3.12-0.02,5.5,0.64,7.14,1.97C611.79,226.21,612.63,228.2,612.65,230.86z M600.31,235.02c0.72,0,1.08,0,1.8-0.01
				c1.69-0.01,2.95-0.35,3.78-1.01c0.83-0.67,1.24-1.63,1.24-2.9c-0.01-1.28-0.37-2.22-1.07-2.82s-1.8-0.9-3.29-0.9
				c-0.99,0-1.49,0.01-2.49,0.01C600.29,230.44,600.3,231.97,600.31,235.02z"/>
			<path class="st12" d="M640.15,235.26c0.09,4.25-0.91,7.54-3,9.87c-2.09,2.32-5.13,3.52-9.11,3.58s-7.06-1.04-9.22-3.31
				c-2.16-2.26-3.25-5.53-3.3-9.81c-0.04-4.28,0.99-7.55,3.08-9.83c2.09-2.28,5.11-3.44,9.07-3.5c3.95-0.06,7,1.02,9.13,3.26
				S640.06,231,640.15,235.26z M621.27,235.57c0.04,2.87,0.61,5.03,1.73,6.46c1.12,1.44,2.77,2.14,4.96,2.11
				c4.39-0.07,6.53-3,6.43-8.77c-0.1-5.79-2.32-8.64-6.66-8.58c-2.17,0.03-3.8,0.78-4.89,2.26
				C621.76,230.53,621.24,232.7,621.27,235.57z"/>
			<path class="st12" d="M662.27,227.91c0.05,1.65-0.5,3.03-1.65,4.14c-1.15,1.11-2.73,1.84-4.73,2.19c0,0.04,0,0.06,0,0.11
				c2.38,0.17,4.21,0.77,5.51,1.8c1.3,1.03,1.97,2.4,2.02,4.11c0.07,2.37-0.84,4.26-2.74,5.69s-4.56,2.18-7.99,2.27
				c-3.82,0.1-6.89-0.3-9.22-1.18c-0.04-1.83-0.06-2.74-0.1-4.57c1.12,0.5,2.44,0.89,3.94,1.15c1.5,0.26,2.91,0.38,4.21,0.35
				c4.37-0.11,6.52-1.43,6.45-3.95c-0.03-1.14-0.75-1.99-2.17-2.56c-1.42-0.57-3.49-0.82-6.23-0.76c-0.97,0.02-1.46,0.03-2.42,0.06
				c-0.04-1.7-0.06-2.55-0.1-4.25c0.87-0.02,1.3-0.03,2.17-0.05c2.73-0.06,4.72-0.37,5.95-0.92c1.23-0.55,1.84-1.42,1.8-2.62
				c-0.02-0.88-0.43-1.57-1.23-2.07c-0.8-0.5-1.97-0.73-3.54-0.69c-2.42,0.06-4.74,0.81-6.97,2.26c-0.98-1.43-1.48-2.15-2.46-3.59
				c1.45-1,2.99-1.75,4.62-2.24s3.45-0.76,5.46-0.81c2.8-0.07,5.06,0.45,6.76,1.58C661.33,224.49,662.21,226,662.27,227.91z"/>
			<path class="st12" d="M688.13,246.73c-2.2,0.09-3.3,0.13-5.49,0.21c-0.31-8.46-0.47-12.69-0.78-21.15
				c-3.79,0.14-5.69,0.21-9.48,0.33c0.28,8.46,0.42,12.69,0.7,21.15c-2.2,0.07-3.31,0.11-5.51,0.18
				c-0.32-10.27-0.48-15.41-0.8-25.69c8.14-0.25,12.21-0.4,20.35-0.72C687.53,231.32,687.73,236.45,688.13,246.73z"/>
			<path class="st12" d="M716.7,232.54c0.22,4.25-0.68,7.57-2.69,9.96c-2.02,2.39-5.02,3.68-9,3.86c-3.98,0.18-7.09-0.83-9.32-3.02
				c-2.23-2.19-3.42-5.43-3.6-9.7c-0.18-4.27,0.75-7.58,2.78-9.92s5.01-3.6,8.96-3.78c3.95-0.18,7.02,0.8,9.23,2.97
				S716.49,228.28,716.7,232.54z M697.84,233.43c0.12,2.87,0.77,5,1.93,6.41c1.16,1.4,2.84,2.06,5.03,1.96
				c4.39-0.2,6.44-3.2,6.16-8.97c-0.28-5.78-2.59-8.56-6.92-8.36c-2.17,0.1-3.78,0.9-4.82,2.41
				C698.18,228.37,697.72,230.56,697.84,233.43z"/>
			<path class="st12" d="M741.78,244.04c-2.2,0.13-3.3,0.2-5.51,0.33c-0.23-3.97-0.35-5.95-0.58-9.91
				c-1.78,0.71-3.27,1.22-4.47,1.51c-1.2,0.29-2.34,0.47-3.44,0.53c-2.47,0.14-4.4-0.35-5.8-1.45c-1.4-1.1-2.16-2.72-2.27-4.85
				c-0.22-4.24-0.33-6.36-0.55-10.6c2.17-0.11,3.26-0.17,5.43-0.29c0.2,3.62,0.3,5.43,0.49,9.06c0.07,1.24,0.41,2.16,1.02,2.75
				c0.61,0.59,1.61,0.85,2.99,0.78c0.97-0.05,1.92-0.21,2.87-0.45c0.95-0.25,2.11-0.65,3.48-1.21c-0.27-4.6-0.4-6.9-0.67-11.49
				c2.18-0.13,3.27-0.19,5.45-0.33C740.84,228.65,741.16,233.78,741.78,244.04z"/>
			<path class="st12" d="M763.3,242.63c-0.92-2.39-1.38-3.58-2.3-5.97c-3.78,0.26-5.66,0.39-9.44,0.63
				c-0.59,2.49-0.89,3.74-1.48,6.23c-2.37,0.15-3.56,0.23-5.93,0.37c3.03-10.53,4.52-15.8,7.47-26.33c2.66-0.17,4-0.26,6.66-0.45
				c4.34,10.05,6.53,15.07,10.95,25.1C766.86,242.38,765.67,242.47,763.3,242.63z M759.38,232.19c-2.11-5.41-3.29-8.47-3.56-9.18
				c-0.27-0.71-0.46-1.27-0.58-1.69c-0.29,1.52-1.15,5.3-2.6,11.32C755.33,232.47,756.68,232.38,759.38,232.19z"/>
			<path class="st12" d="M781.59,241.29c-2.2,0.17-3.3,0.25-5.5,0.42c-0.63-8.44-0.95-12.66-1.58-21.1
				c-2.79,0.21-4.19,0.31-6.99,0.51c-0.13-1.81-0.19-2.71-0.33-4.52c7.76-0.56,11.64-0.85,19.39-1.47c0.14,1.81,0.22,2.71,0.36,4.52
				c-2.79,0.22-4.19,0.33-6.98,0.55C780.62,228.63,780.94,232.85,781.59,241.29z"/>
			<path class="st12" d="M814.09,225.64c0.38,4.24-0.38,7.59-2.3,10.06c-1.92,2.47-4.87,3.87-8.85,4.22s-7.12-0.55-9.43-2.65
				c-2.31-2.1-3.64-5.29-3.98-9.55c-0.34-4.26,0.45-7.6,2.38-10.03c1.93-2.42,4.86-3.8,8.81-4.13c3.94-0.34,7.06,0.53,9.35,2.6
				C812.36,218.23,813.71,221.39,814.09,225.64z M795.27,227.27c0.24,2.86,0.96,4.97,2.18,6.33c1.22,1.36,2.92,1.94,5.1,1.76
				c4.38-0.38,6.31-3.45,5.81-9.2c-0.51-5.77-2.93-8.46-7.25-8.09c-2.17,0.19-3.74,1.05-4.72,2.6
				C795.4,222.21,795.03,224.41,795.27,227.27z"/>
			<path class="st12" d="M818.3,235.67c-0.09-0.98,0.11-1.75,0.59-2.3c0.48-0.55,1.23-0.87,2.25-0.97c0.98-0.09,1.76,0.09,2.35,0.56
				s0.92,1.17,1.01,2.13c0.09,0.92-0.12,1.67-0.61,2.26c-0.49,0.58-1.23,0.92-2.19,1.01c-0.99,0.09-1.79-0.1-2.38-0.57
				C818.73,237.32,818.39,236.61,818.3,235.67z M823.03,229.19c-1.72,0.16-2.59,0.24-4.31,0.4c-0.99-6.81-1.49-10.21-2.48-17.02
				c2.43-0.22,3.64-0.34,6.07-0.57C822.61,218.88,822.75,222.32,823.03,229.19z"/>
		</g>
	</g>
</g>
</svg>
